<svg width="65" height="27" viewBox="0 0 65 27" fill="none" xmlns="http://www.w3.org/2000/svg">
<path d="M26.072 12.464V14.408C26.072 18.008 24.92 20.924 22.616 23.156C20.312 25.388 17.336 26.504 13.688 26.504C9.8 26.504 6.572 25.244 4.004 22.724C1.46 20.18 0.188 17.084 0.188 13.436C0.188 9.764 1.448 6.656 3.968 4.112C6.512 1.568 9.656 0.295998 13.4 0.295998C15.752 0.295998 17.9 0.835999 19.844 1.916C21.788 2.972 23.3 4.388 24.38 6.164L20.132 8.612C19.532 7.58 18.62 6.74 17.396 6.092C16.196 5.444 14.852 5.12 13.364 5.12C10.964 5.12 8.984 5.912 7.424 7.496C5.888 9.056 5.12 11.036 5.12 13.436C5.12 15.812 5.9 17.78 7.46 19.34C9.044 20.876 11.132 21.644 13.724 21.644C15.644 21.644 17.228 21.224 18.476 20.384C19.748 19.52 20.612 18.344 21.068 16.856H13.436V12.464H26.072ZM43.4296 26L38.3536 17.252H34.5736V26H29.6056V0.799998H39.6856C42.0136 0.799998 43.9936 1.616 45.6256 3.248C47.2576 4.88 48.0736 6.848 48.0736 9.152C48.0736 10.712 47.6296 12.164 46.7416 13.508C45.8536 14.828 44.6776 15.824 43.2136 16.496L48.7936 26H43.4296ZM34.5736 5.444V12.896H39.6856C40.6216 12.896 41.4256 12.536 42.0976 11.816C42.7696 11.072 43.1056 10.184 43.1056 9.152C43.1056 8.12 42.7696 7.244 42.0976 6.524C41.4256 5.804 40.6216 5.444 39.6856 5.444H34.5736ZM55.0838 13.112C55.0838 13.592 55.3958 13.988 56.0198 14.3C56.6678 14.588 57.4478 14.852 58.3598 15.092C59.2718 15.308 60.1838 15.596 61.0958 15.956C62.0078 16.292 62.7758 16.868 63.3998 17.684C64.0478 18.5 64.3718 19.52 64.3718 20.744C64.3718 22.592 63.6758 24.02 62.2838 25.028C60.9158 26.012 59.1998 26.504 57.1358 26.504C53.4398 26.504 50.9198 25.076 49.5758 22.22L53.6078 19.952C54.1358 21.512 55.3118 22.292 57.1358 22.292C58.7918 22.292 59.6198 21.776 59.6198 20.744C59.6198 20.264 59.2958 19.88 58.6478 19.592C58.0238 19.28 57.2558 19.004 56.3438 18.764C55.4318 18.524 54.5198 18.224 53.6078 17.864C52.6958 17.504 51.9158 16.94 51.2678 16.172C50.6438 15.38 50.3318 14.396 50.3318 13.22C50.3318 11.444 50.9798 10.052 52.2758 9.044C53.5958 8.012 55.2278 7.496 57.1718 7.496C58.6358 7.496 59.9678 7.832 61.1678 8.504C62.3678 9.152 63.3158 10.088 64.0118 11.312L60.0518 13.472C59.4758 12.248 58.5158 11.636 57.1718 11.636C56.5718 11.636 56.0678 11.768 55.6598 12.032C55.2758 12.296 55.0838 12.656 55.0838 13.112Z" fill="white"/>
</svg>
