<svg width="121" height="37" viewBox="0 0 121 37" fill="none" xmlns="http://www.w3.org/2000/svg">
<path d="M75.072 17.464V19.408C75.072 23.008 73.92 25.924 71.616 28.156C69.312 30.388 66.336 31.504 62.688 31.504C58.8 31.504 55.572 30.244 53.004 27.724C50.46 25.18 49.188 22.084 49.188 18.436C49.188 14.764 50.448 11.656 52.968 9.112C55.512 6.568 58.656 5.296 62.4 5.296C64.752 5.296 66.9 5.836 68.844 6.916C70.788 7.972 72.3 9.388 73.38 11.164L69.132 13.612C68.532 12.58 67.62 11.74 66.396 11.092C65.196 10.444 63.852 10.12 62.364 10.12C59.964 10.12 57.984 10.912 56.424 12.496C54.888 14.056 54.12 16.036 54.12 18.436C54.12 20.812 54.9 22.78 56.46 24.34C58.044 25.876 60.132 26.644 62.724 26.644C64.644 26.644 66.228 26.224 67.476 25.384C68.748 24.52 69.612 23.344 70.068 21.856H62.436V17.464H75.072ZM92.4296 31L87.3536 22.252H83.5736V31H78.6056V5.8H88.6856C91.0136 5.8 92.9936 6.616 94.6256 8.248C96.2576 9.88 97.0736 11.848 97.0736 14.152C97.0736 15.712 96.6296 17.164 95.7416 18.508C94.8536 19.828 93.6776 20.824 92.2136 21.496L97.7936 31H92.4296ZM83.5736 10.444V17.896H88.6856C89.6216 17.896 90.4256 17.536 91.0976 16.816C91.7696 16.072 92.1056 15.184 92.1056 14.152C92.1056 13.12 91.7696 12.244 91.0976 11.524C90.4256 10.804 89.6216 10.444 88.6856 10.444H83.5736ZM104.084 18.112C104.084 18.592 104.396 18.988 105.02 19.3C105.668 19.588 106.448 19.852 107.36 20.092C108.272 20.308 109.184 20.596 110.096 20.956C111.008 21.292 111.776 21.868 112.4 22.684C113.048 23.5 113.372 24.52 113.372 25.744C113.372 27.592 112.676 29.02 111.284 30.028C109.916 31.012 108.2 31.504 106.136 31.504C102.44 31.504 99.9198 30.076 98.5758 27.22L102.608 24.952C103.136 26.512 104.312 27.292 106.136 27.292C107.792 27.292 108.62 26.776 108.62 25.744C108.62 25.264 108.296 24.88 107.648 24.592C107.024 24.28 106.256 24.004 105.344 23.764C104.432 23.524 103.52 23.224 102.608 22.864C101.696 22.504 100.916 21.94 100.268 21.172C99.6438 20.38 99.3318 19.396 99.3318 18.22C99.3318 16.444 99.9798 15.052 101.276 14.044C102.596 13.012 104.228 12.496 106.172 12.496C107.636 12.496 108.968 12.832 110.168 13.504C111.368 14.152 112.316 15.088 113.012 16.312L109.052 18.472C108.476 17.248 107.516 16.636 106.172 16.636C105.572 16.636 105.068 16.768 104.66 17.032C104.276 17.296 104.084 17.656 104.084 18.112Z" fill="white"/>
<rect width="38" height="37" fill="white"/>
</svg>
